HIERARCHY
ROOT Hips
{
	OFFSET 0.00000 0.00000 0.00000
	CHANNELS 6 Xposition Yposition Zposition Zrotation Yrotation Xrotation 
	JOINT LHipJoint
	{
		OFFSET 0 0 0
		CHANNELS 3 Zrotation Yrotation Xrotation
		JOINT LeftUpLeg
		{
			OFFSET 1.88772 -1.62769 0.85636
			CHANNELS 3 Zrotation Yrotation Xrotation
			JOINT LeftLeg
			{
				OFFSET 2.39836 -6.58946 0.00000
				CHANNELS 3 Zrotation Yrotation Xrotation
				JOINT LeftFoot
				{
					OFFSET 2.78523 -7.65237 0.00000
					CHANNELS 3 Zrotation Yrotation Xrotation
					JOINT LeftToeBase
					{
						OFFSET 0.19551 -0.53715 1.90694
						CHANNELS 3 Zrotation Yrotation Xrotation
						End Site
						{
							OFFSET 0.00000 -0.00000 0.99735
						}
					}
				}
			}
		}
	}
	JOINT RHipJoint
	{
		OFFSET 0 0 0
		CHANNELS 3 Zrotation Yrotation Xrotation
		JOINT RightUpLeg
		{
			OFFSET -1.74282 -1.62769 0.85636
			CHANNELS 3 Zrotation Yrotation Xrotation
			JOINT RightLeg
			{
				OFFSET -2.36062 -6.48575 0.00000
				CHANNELS 3 Zrotation Yrotation Xrotation
				JOINT RightFoot
				{
					OFFSET -2.76258 -7.59014 0.00000
					CHANNELS 3 Zrotation Yrotation Xrotation
					JOINT RightToeBase
					{
						OFFSET -0.19308 -0.53048 2.03952
						CHANNELS 3 Zrotation Yrotation Xrotation
						End Site
						{
							OFFSET -0.00000 -0.00000 1.06031
						}
					}
				}
			}
		}
	}
	JOINT LowerBack
	{
		OFFSET 0 0 0
		CHANNELS 3 Zrotation Yrotation Xrotation
		JOINT Spine
		{
			OFFSET -0.08299 2.03160 -0.30721
			CHANNELS 3 Zrotation Yrotation Xrotation
			JOINT Spine1
			{
				OFFSET -0.01030 2.00603 0.13891
				CHANNELS 3 Zrotation Yrotation Xrotation
				JOINT Neck
				{
					OFFSET 0 0 0
					CHANNELS 3 Zrotation Yrotation Xrotation
					JOINT Neck1
					{
						OFFSET 0.04282 1.69578 0.19991
						CHANNELS 3 Zrotation Yrotation Xrotation
						JOINT Head
						{
							OFFSET -0.08665 1.66622 -0.03785
							CHANNELS 3 Zrotation Yrotation Xrotation
							End Site
							{
								OFFSET -0.03699 1.83329 -0.04094
							}
						}
					}
				}
				JOINT LeftShoulder
				{
					OFFSET 0 0 0
					CHANNELS 3 Zrotation Yrotation Xrotation
					JOINT LeftArm
					{
						OFFSET 3.04219 1.50803 -0.05347
						CHANNELS 3 Zrotation Yrotation Xrotation
						JOINT LeftForeArm
						{
							OFFSET 5.79199 -0.00000 0.00000
							CHANNELS 3 Zrotation Yrotation Xrotation
							JOINT LeftHand
							{
								OFFSET 3.49908 -0.00000 0.00000
								CHANNELS 3 Zrotation Yrotation Xrotation
								JOINT LeftFingerBase
								{
									OFFSET 0 0 0
									CHANNELS 3 Zrotation Yrotation Xrotation
									JOINT LeftHandIndex1
									{
										OFFSET 0.59386 -0.00000 0.00000
										CHANNELS 3 Zrotation Yrotation Xrotation
										End Site
										{
											OFFSET 0.47879 -0.00000 0.00000
										}
									}
								}
								JOINT LThumb
								{
									OFFSET 0 0 0
									CHANNELS 3 Zrotation Yrotation Xrotation
									End Site
									{
										OFFSET 0.48610 -0.00000 0.48610
									}
								}
							}
						}
					}
				}
				JOINT RightShoulder
				{
					OFFSET 0 0 0
					CHANNELS 3 Zrotation Yrotation Xrotation
					JOINT RightArm
					{
						OFFSET -3.30316 1.18853 0.11175
						CHANNELS 3 Zrotation Yrotation Xrotation
						JOINT RightForeArm
						{
							OFFSET -5.73799 -0.00000 0.00000
							CHANNELS 3 Zrotation Yrotation Xrotation
							JOINT RightHand
							{
								OFFSET -3.57916 -0.00000 -0.00000
								CHANNELS 3 Zrotation Yrotation Xrotation
								JOINT RightFingerBase
								{
									OFFSET 0 0 0
									CHANNELS 3 Zrotation Yrotation Xrotation
									JOINT RightHandIndex1
									{
										OFFSET -0.61558 -0.00000 0.00000
										CHANNELS 3 Zrotation Yrotation Xrotation
										End Site
										{
											OFFSET -0.49629 -0.00000 0.00000
										}
									}
								}
								JOINT RThumb
								{
									OFFSET 0 0 0
									CHANNELS 3 Zrotation Yrotation Xrotation
									End Site
									{
										OFFSET -0.50387 -0.00000 0.50387
									}
								}
							}
						}
					}
				}
			}
		}
	}
}
MOTION
Frames: 6
Frame Time: .0083333
16.9141 17.7765 -12.8575 0 0 0 0 0 0 -21 0 0 0 0 0 0 0 0 0 0 0 0 0 0 21 0 0 0 0 0 0 0 0 0 0 0 0 0 0 0 0 0 0 0 0 0 0 -16 0 0 21 0 0 11 0 0 0 -8 0 0 0 0 0 0 0 0 0 0 0 0 0 0 0 0 0 0 0 0 8 0 0 0 0 0 0 0 0 0 0 0 0 0 0 0 0 0
16.9141 17.7765 -12.8575 4.5987 -68.8301 8.4483 0.0000 0.0000 0.0000 -23.0380 -4.8972 -26.7229 1.6541 8.1051 23.0338 0.6684 13.1218 -25.2077 0.4343 4.2292 11.7223 0.0000 0.0000 0.0000 10.9892 1.9980 -14.0321 -1.9762 -8.8164 25.2227 -0.0635 -11.5845 -17.3419 -0.2192 3.0141 -8.3179 -10.5033 1.3332 3.3288 -3.2041 0.9895 -2.6217 2.4494 0.7411 -4.7709 5.2179 4.0092 -6.7450 -4.3806 5.1408 4.4140 -2.1102 2.5037 2.8984 -0.0000 0.0000 0.0000 -76.8271 -1.5781 18.3404 16.4322 -26.1032 -3.8342 -0.0000 0.0000 -15.8937 14.2399 -19.5177 -4.8464 -7.1250 0.0000 -0.0000 -9.0862 10.0903 7.4506 -0.0000 0.0000 0.0000 82.7320 -11.4801 45.6149 -28.0878 39.1969 -10.1791 0.0000 -0.0000 -8.0937 -15.9319 -27.8630 7.5991 7.1250 -0.0000 -0.0000 16.2407 -58.0352 -5.2713
16.9196 17.7807 -12.8687 4.5721 -69.0092 8.3379 0.0000 0.0000 0.0000 -23.0116 -4.7653 -26.4459 1.6162 8.0163 22.7635 0.6913 13.1164 -25.3890 0.4491 4.2997 11.9213 0.0000 0.0000 0.0000 10.9472 1.9400 -13.6591 -1.9564 -8.7747 25.0930 -0.0796 -11.5808 -17.5457 -0.3312 3.6986 -10.2302 -10.3986 1.4090 3.3636 -3.1236 1.0980 -2.6176 2.4666 0.7951 -4.7977 4.5878 3.9300 -6.5169 -4.0800 5.0777 4.1871 -1.9019 2.4731 2.7394 0.0000 0.0000 0.0000 -77.0842 -1.6722 18.1220 16.3475 -25.9896 -3.7970 -0.0000 0.0000 -15.4303 13.9833 -19.4944 -4.7504 -7.1250 0.0000 -0.0000 -9.2512 10.1414 7.5798 0.0000 0.0000 0.0000 82.6688 -11.3970 45.4551 -27.9930 39.1098 -10.1193 0.0000 -0.0000 -8.1464 -14.7655 -27.2947 6.8915 7.1250 -0.0000 -0.0000 17.1017 -57.2375 -5.2299
16.9272 17.8021 -12.8840 5.6544 -69.2330 7.2786 0.0000 0.0000 0.0000 -23.5079 -4.5308 -26.5275 1.6617 8.1228 23.0876 0.6917 13.1965 -25.4740 0.3392 3.7426 10.3535 0.0000 0.0000 0.0000 10.4240 1.9684 -13.5133 -1.9092 -8.6744 24.7819 -0.0230 -11.8200 -17.1288 -0.4051 4.0862 -11.3194 -10.6434 1.4379 3.4089 -3.2003 1.1051 -2.6629 2.5178 0.8080 -4.8795 4.4487 3.9387 -6.4353 -4.1056 5.1052 4.1452 -1.8852 2.4843 2.7071 0.0000 -0.0000 0.0000 -77.1239 -1.5479 18.4119 16.4465 -26.1224 -3.8405 -0.0000 0.0000 -15.6145 13.9313 -19.5541 -4.7460 -7.1250 0.0000 -0.0000 -9.2864 10.0868 7.6199 0.0000 -0.0000 0.0000 82.7247 -11.2278 45.4680 -27.8904 39.0152 -10.0546 0.0000 -0.0000 -8.2108 -16.9494 -28.5786 8.2946 7.1250 -0.0000 -0.0000 15.6199 -58.9536 -5.4096
16.9430 17.7954 -12.9093 5.8592 -69.2650 7.0568 0.0000 0.0000 0.0000 -23.8091 -3.9988 -26.7378 1.7016 8.2147 23.3681 0.6284 13.2638 -25.0260 0.1980 2.8654 7.9041 0.0000 0.0000 0.0000 10.4188 1.5639 -13.0551 -1.8542 -8.5555 24.4145 -0.0910 -11.2268 -17.2273 -0.2363 3.1284 -8.6365 -10.4989 1.3801 3.4944 -3.3187 1.0110 -2.7187 2.3194 0.7587 -4.9699 4.7370 4.0061 -6.6422 -4.1070 5.1695 4.4696 -1.9311 2.5191 2.8700 0.0000 0.0000 0.0000 -76.8096 -1.3558 19.0169 16.6414 -26.3826 -3.9267 -0.0000 0.0000 -16.3844 14.0675 -19.5019 -4.7818 -7.1250 0.0000 -0.0000 -9.1970 10.1248 7.5374 0.0000 0.0000 0.0000 82.9265 -11.2007 45.4256 -27.8735 38.9995 -10.0440 0.0000 -0.0000 -7.7433 -19.9072 -29.8099 10.2055 7.1250 -0.0000 -0.0000 13.2116 -60.8517 -5.1554
16.9527 17.7974 -12.9354 4.5786 -69.1151 8.2874 0.0000 0.0000 0.0000 -23.3309 -3.8803 -26.9600 1.7363 8.2938 23.6100 0.6184 13.1704 -24.8449 0.1681 2.6411 7.2811 0.0000 0.0000 0.0000 11.0434 1.1687 -12.8009 -1.8017 -8.4401 24.0591 -0.0765 -11.4132 -17.2841 -0.3057 3.5550 -9.8280 -9.9436 1.2675 3.3858 -3.2472 0.9181 -2.6967 2.1001 0.6930 -4.8574 4.6416 4.0710 -6.5402 -3.8109 5.2484 4.3482 -1.8129 2.5675 2.7978 -0.0000 0.0000 0.0000 -76.6270 -1.4681 19.0499 16.6665 -26.4160 -3.9378 -0.0000 0.0000 -16.6685 14.3089 -19.1484 -4.7825 -7.1250 0.0000 -0.0000 -9.0311 10.4557 7.3364 -0.0000 0.0000 0.0000 82.9032 -11.2819 45.5311 -28.0742 39.1845 -10.1705 0.0000 -0.0000 -7.5542 -20.1652 -29.5227 10.2574 7.1250 -0.0000 -0.0000 12.7364 -60.6310 -4.8994
